<mxfile host="app.diagrams.net" modified="2022-10-17T21:28:58.188Z" agent="5.0 (Macintosh; Intel Mac OS X 10_15_7) AppleWebKit/537.36 (KHTML, like Gecko) Chrome/105.0.0.0 Safari/537.36" etag="4Hj0025yx5YRhPrU7iPO" version="20.4.1" type="github" pages="2">
  <diagram id="aXNlww9snYpxabarbwZA" name="Email On Demand">
    <mxGraphModel dx="949" dy="466" grid="1" gridSize="10" guides="1" tooltips="1" connect="1" arrows="1" fold="1" page="1" pageScale="1" pageWidth="850" pageHeight="1100" math="0" shadow="0">
      <root>
        <mxCell id="0" />
        <mxCell id="1" parent="0" />
        <mxCell id="zOqDWjr1UwVliQbFNif_-1" value="API Gateway" style="outlineConnect=0;dashed=0;verticalLabelPosition=bottom;verticalAlign=top;align=center;html=1;shape=mxgraph.aws3.api_gateway;fillColor=#D9A741;gradientColor=none;" vertex="1" parent="1">
          <mxGeometry x="380" y="100" width="76.5" height="93" as="geometry" />
        </mxCell>
        <mxCell id="zOqDWjr1UwVliQbFNif_-2" value="Email Q" style="outlineConnect=0;dashed=0;verticalLabelPosition=bottom;verticalAlign=top;align=center;html=1;shape=mxgraph.aws3.sqs;fillColor=#D9A741;gradientColor=none;" vertex="1" parent="1">
          <mxGeometry x="550" y="110" width="76.5" height="93" as="geometry" />
        </mxCell>
        <mxCell id="zOqDWjr1UwVliQbFNif_-3" value="Twilio Function" style="outlineConnect=0;dashed=0;verticalLabelPosition=bottom;verticalAlign=top;align=center;html=1;shape=mxgraph.aws3.lambda_function;fillColor=#F58534;gradientColor=none;" vertex="1" parent="1">
          <mxGeometry x="550" y="270.00000000000006" width="69" height="72" as="geometry" />
        </mxCell>
        <mxCell id="zOqDWjr1UwVliQbFNif_-4" value="" style="shape=image;verticalLabelPosition=bottom;labelBackgroundColor=default;verticalAlign=top;aspect=fixed;imageAspect=0;image=data:image/png,iVBORw0KGgoAAAANSUhEUgAAARwAAABqCAYAAABu+O6IAAAMaGlDQ1BJQ0MgUHJvZmlsZQAASImVVwdUU8kanluSkJDQAqFICb0JIr1ICaFFEJAONkISSCgxJAQVO7qo4NpFFCu6KqLi6grIWhCxuwj2vlhQUdZFXRRF5U1IQNd95bz/nLnz5Zt//nZncmcA0OzjSiS5qBYAeeICaVx4MDMlNY1JegpIAANUYALsuDyZhBUbGwWgDPV/l3c3AKLorzopbP1z/L+KDl8g4wGATIQ4gy/j5UHcBAC+kSeRFgBAVPCW0wokCjwPYl0pDBDiNQqcpcS7FThDiY8O6iTEsSFuA0CNyuVKswDQuAd5ZiEvC9rR+ASxi5gvEgOgORLiAJ6Qy4dYEfvIvLypClwBsR3Ul0AM4wHeGd/YzPqb/Yxh+1xu1jBW5jUoaiEimSSXO+P/LM3/lrxc+ZAPG9ioQmlEnCJ/WMNbOVMjFZgKcbc4IzpGUWuI+0R8Zd0BQClCeUSiUh815snYsH6AAbELnxsSCbExxGHi3OgoFZ+RKQrjQAxXCzpdVMBJgNgA4sUCWWi8SmerdGqcyhdalylls1T8Oa500K/C1wN5TiJLZf+NUMBR2cc0ioQJyRBTILYqFCVFQ6wBsbMsJz5SpTOmSMiOHtKRyuMU8VtBHCcQhwcr7WOFmdKwOJV+aZ5sKF9sq1DEiVbhgwXChAhlfbAWHncwfpgL1iYQsxKH7AhkKVFDufAFIaHK3LHnAnFivMpOn6QgOE45F6dIcmNV+riFIDdcwVtA7C4rjFfNxZMK4OJU2sczJQWxCco48aJs7thYZTz4ChAF2CAEMIEctgwwFWQDUWt3fTf8pRwJA1wgBVlAAJxUzNCM5MERMXzGgyLwB0QCIBueFzw4KgCFkP88zCqfTiBzcLRwcEYOeApxHogEufC3fHCWeNhbEngCGdE/vHNh48F4c2FTjP97foj9yrAgE6Vi5EMemZpDmsRQYggxghhGtMeN8ADcD4+CzyDYXHFv3Gcoj6/6hKeEdsIjwnVCB+H2FFGx9Lsox4EOaD9MVYuMb2uB20CbHngw7g+tQ8s4AzcCTrg79MPCA6FnD8iyVXErqsL8zvbfMvjmbaj0yC5klKxPDiLbfT9Tw0HDY9iKotbf1kcZa8ZwvdnDI9/7Z39TfT7sI7/XxBZjh7Cz2EnsPHYUqwdM7ATWgF3Cjinw8Op6Mri6hrzFDcaTA+2I/uFv6M0qKilzqXHpcvmkHCsQTC9QbDz2VMkMqShLWMBkwa+DgMkR85xHMl1dXF0BUHxrlH9fbxmD3xCEceErl98EgE8pJLO+clxLAI48BYD+7itn+QZumxUAHGvjyaWFSg5XPAjwX0IT7jRDYAosgR3MxxV4Aj8QBELBWBADEkAqmAyjF8J1LgXTwCwwH5SAMrACrAUbwBawHewG+8BBUA+OgpPgDLgI2sB1cBeunk7wEvSAd6AfQRASQkPoiCFihlgjjogr4o0EIKFIFBKHpCLpSBYiRuTILGQBUoasQjYg25Bq5GfkCHISOY+0I7eRh0gX8gb5iGIoFdVFTVAbdBTqjbLQSDQBnYRmofloEboQXYZWoFXoXrQOPYleRK+jHehLtBcDmDrGwMwxJ8wbY2MxWBqWiUmxOVgpVo5VYfuxRvier2IdWDf2ASfidJyJO8EVHIEn4jw8H5+DL8U34LvxOrwFv4o/xHvwLwQawZjgSPAlcAgphCzCNEIJoZywk3CYcBrupU7COyKRyCDaEr3gXkwlZhNnEpcSNxFriU3EduJjYi+JRDIkOZL8STEkLqmAVEJaT9pLOkG6Quok9ampq5mpuaqFqaWpidWK1crV9qgdV7ui9kytn6xFtib7kmPIfPIM8nLyDnIj+TK5k9xP0abYUvwpCZRsynxKBWU/5TTlHuWturq6hbqP+nh1kfo89Qr1A+rn1B+qf6DqUB2obOpEqpy6jLqL2kS9TX1Lo9FsaEG0NFoBbRmtmnaK9oDWp0HXcNbgaPA15mpUatRpXNF4pUnWtNZkaU7WLNIs1zykeVmzW4usZaPF1uJqzdGq1DqidVOrV5uuPVo7RjtPe6n2Hu3z2s91SDo2OqE6fJ2FOtt1Tuk8pmN0SzqbzqMvoO+gn6Z36hJ1bXU5utm6Zbr7dFt1e/R09Nz1kvSm61XqHdPrYGAMGwaHkctYzjjIuMH4qG+iz9IX6C/R369/Rf+9wQiDIAOBQalBrcF1g4+GTMNQwxzDlYb1hveNcCMHo/FG04w2G5026h6hO8JvBG9E6YiDI+4Yo8YOxnHGM423G18y7jUxNQk3kZisNzll0m3KMA0yzTZdY3rctMuMbhZgJjJbY3bC7AVTj8li5jIrmC3MHnNj8whzufk281bzfgtbi0SLYotai/uWFEtvy0zLNZbNlj1WZlbjrGZZ1VjdsSZbe1sLrddZn7V+b2Nrk2yzyKbe5rmtgS3Htsi2xvaeHc0u0C7frsrumj3R3ts+x36TfZsD6uDhIHSodLjsiDp6OoocNzm2jySM9BkpHlk18qYT1YnlVOhU4/TQmeEc5VzsXO/8apTVqLRRK0edHfXFxcMl12WHy93ROqPHji4e3Tj6jauDK8+10vWaG80tzG2uW4Pba3dHd4H7ZvdbHnSPcR6LPJo9Pnt6eUo993t2eVl5pXtt9Lrpresd673U+5wPwSfYZ67PUZ8Pvp6+Bb4Hff/0c/LL8dvj93yM7RjBmB1jHvtb+HP9t/l3BDAD0gO2BnQEmgdyA6sCHwVZBvGDdgY9Y9mzsll7Wa+CXYKlwYeD37N92bPZTSFYSHhIaUhrqE5oYuiG0AdhFmFZYTVhPeEe4TPDmyIIEZERKyNuckw4PE41p2es19jZY1siqZHxkRsiH0U5REmjGseh48aOWz3uXrR1tDi6PgbEcGJWx9yPtY3Nj/11PHF87PjK8U/jRsfNijsbT4+fEr8n/l1CcMLyhLuJdonyxOYkzaSJSdVJ75NDklcld6SMSpmdcjHVKFWU2pBGSktK25nWOyF0wtoJnRM9JpZMvDHJdtL0SecnG03OnXxsiuYU7pRD6YT05PQ96Z+4Mdwqbm8GJ2NjRg+PzVvHe8kP4q/hdwn8BasEzzL9M1dlPs/yz1qd1SUMFJYLu0Vs0QbR6+yI7C3Z73NicnblDOQm59bmqeWl5x0R64hzxC1TTadOn9oucZSUSDryffPX5vdII6U7ZYhskqyhQBce6i/J7eQ/yB8WBhRWFvZNS5p2aLr2dPH0SzMcZiyZ8aworOinmfhM3szmWeaz5s96OJs1e9scZE7GnOa5lnMXzu2cFz5v93zK/Jz5vxW7FK8q/mtB8oLGhSYL5y18/EP4DzUlGiXSkpuL/BZtWYwvFi1uXeK2ZP2SL6X80gtlLmXlZZ+W8pZe+HH0jxU/DizLXNa63HP55hXEFeIVN1YGrty9SntV0arHq8etrlvDXFO65q+1U9aeL3cv37KOsk6+rqMiqqJhvdX6Fes/bRBuuF4ZXFm70Xjjko3vN/E3XdkctHn/FpMtZVs+bhVtvbUtfFtdlU1V+Xbi9sLtT3ck7Tj7k/dP1TuNdpbt/LxLvKtjd9zulmqv6uo9xnuW16A18pquvRP3tu0L2dew32n/tlpGbdkBcEB+4MXP6T/fOBh5sPmQ96H9v1j/svEw/XBpHVI3o66nXljf0ZDa0H5k7JHmRr/Gw786/7rrqPnRymN6x5YfpxxfeHzgRNGJ3iZJU/fJrJOPm6c03z2Vcupay/iW1tORp8+dCTtz6izr7Ilz/ueOnvc9f+SC94X6i54X6y55XDr8m8dvh1s9W+sue11uaPNpa2wf0378SuCVk1dDrp65xrl28Xr09fYbiTdu3Zx4s+MW/9bz27m3X98pvNN/d949wr3S+1r3yx8YP6j63f732g7PjmMPQx5eehT/6O5j3uOXT2RPPnUufEp7Wv7M7Fn1c9fnR7vCutpeTHjR+VLysr+75A/tPza+snv1y59Bf17qSenpfC19PfBm6VvDt7v+cv+ruTe298G7vHf970v7DPt2f/D+cPZj8sdn/dM+kT5VfLb/3Pgl8su9gbyBAQlXyh08CmCwoZmZALzZBQAtFZ4d4L2NMkF5FxwURHl/HUTgP2HlfXFQPAHYFQRA4jwAouAZZTNs1hBTYa84wicEAdTNbbipRJbp5qq0RYU3IULfwMBbEwBIjQB8lg4M9G8aGPi8AwZ7G4CmfOUdVCFEeGfY6qxAbZ2vwPeivJ9+k+P3PVBE4A6+7/8F02ePc43K8woAAACKZVhJZk1NACoAAAAIAAQBGgAFAAAAAQAAAD4BGwAFAAAAAQAAAEYBKAADAAAAAQACAACHaQAEAAAAAQAAAE4AAAAAAAAAkAAAAAEAAACQAAAAAQADkoYABwAAABIAAAB4oAIABAAAAAEAAAEcoAMABAAAAAEAAABqAAAAAEFTQ0lJAAAAU2NyZWVuc2hvdK87P6wAAAAJcEhZcwAAFiUAABYlAUlSJPAAAAHWaVRYdFhNTDpjb20uYWRvYmUueG1wAAAAAAA8eDp4bXBtZXRhIHhtbG5zOng9ImFkb2JlOm5zOm1ldGEvIiB4OnhtcHRrPSJYTVAgQ29yZSA2LjAuMCI+CiAgIDxyZGY6UkRGIHhtbG5zOnJkZj0iaHR0cDovL3d3dy53My5vcmcvMTk5OS8wMi8yMi1yZGYtc3ludGF4LW5zIyI+CiAgICAgIDxyZGY6RGVzY3JpcHRpb24gcmRmOmFib3V0PSIiCiAgICAgICAgICAgIHhtbG5zOmV4aWY9Imh0dHA6Ly9ucy5hZG9iZS5jb20vZXhpZi8xLjAvIj4KICAgICAgICAgPGV4aWY6UGl4ZWxZRGltZW5zaW9uPjEwNjwvZXhpZjpQaXhlbFlEaW1lbnNpb24+CiAgICAgICAgIDxleGlmOlBpeGVsWERpbWVuc2lvbj4yODQ8L2V4aWY6UGl4ZWxYRGltZW5zaW9uPgogICAgICAgICA8ZXhpZjpVc2VyQ29tbWVudD5TY3JlZW5zaG90PC9leGlmOlVzZXJDb21tZW50PgogICAgICA8L3JkZjpEZXNjcmlwdGlvbj4KICAgPC9yZGY6UkRGPgo8L3g6eG1wbWV0YT4K76YTEgAAABxpRE9UAAAAAgAAAAAAAAA1AAAAKAAAADUAAAA1AAAMFTpe6ZIAAAvhSURBVHgB7F19jF1FFT9v3+623WW7SBEkQsBQQ6qgpJUolRAbUUy0FA0qxhgpFDHiB1AqVEAbLbYIFLQaJC1UI34FYoHWxIqk2iBIUKKiggYMBExFKdDu98fb55y7Pc/Z++beOWfeu/e9uz33j733zps5M/Obmd+cOXPmbqlqLtBLEVAEFIEcECgp4eSAsmahCCgCEQJKONoRFAFFIDcElHByg1ozUgQUASUc7QOKgCKQGwJKOLlBrRkpAoqAEo72AUVAEcgNASWc3KDWjBQBRUAJR/uAIqAI5IaAEk5uUGtGioAioISjfUARUARyQ0AJJzeoNSNFQBFQwtE+oAgoArkhoISTG9SakSKgCBSXcMwh9+rLr8LUsy/A5BNPQXXfq1B58mmY/ONfZ7Rq56lvhvKihVBeeDx0HHsMdJxwLJSOOBygVJoRT18UAUUgewQKRTjVsXGoPPI4jO/aAxMP7GkIna73nAndZ58J5dMXQ2lOd0OyNLEioAjwEGh/wjGaTOXxv8DobXfVaS+8KvpjIfnMWXkelN/4BtV8/HBpDEUgGIH2JZyDRDO87haY2vuf4ApKEnYccxT0rLscyotPVuKRAKdxFQEmAm1JOJV//BOGV6/PjWjiWCHx9N52fWTzif+m74qAIhCOQFsRDtpoRtbd2rB9JhyOmSnnfGwFzL3sQoByeeYP+qYIKAJBCLQN4Uw9vxeGPnNNy7SaJPRQ2zls281QOvI1SVE0XBFQBJgItAXhTNz3Sxj+2reYRW5NtN6broXOd72jNZlrrorALEGgtYRjDMMT9z/QFLLpPn951CRdy5bOaJqJ3Q9D9aVXYOJXD80ID3npue7z0LXivSFJNY0ioAgYBFpKOMNrvxFsr0GC6V5+lnHkO47tR4M2oqlnn4exbXcHE5CSjo4bRSAcgZYRTsgyquPo18K8r14Bnae+qXFDbqVi/Hr+BiNf3gRTL/5XhKCSjggujawI1BBoCeGEkE3v7RugMwv/GLOsm/z172BozfU1UDgPvTdeA53LTudE1TiKgCJwEIHcCQd3owY+eDG7AXDpNO/yVY1rNJ4coy35r2wSLbXm/+IH+e5eGa0MnSDxTNhsuaZe2AvVF19iV6fmlGmwqBgNlXuVSSsWpisdfeSswpuLV1bxciUcHNSD532avfUdaTVLTsmq7k65k7sfYWs7uGXed++WTMkQMYufH5u/+6dQ6ut1lr9ogfvf9gFRkalPTP7hCRi6ZC07bWg6zKD/9zvZ+WjEdARyJRyJkbhv+xboOK41M7lEC4ucA1fzNbb05pj+lUhm7K7tzvNjSjingBIOpye1X5zcCKfy92dg8ONfYCGQ+1LFUSoJ6TSjvNV9r8DkQ4/B+I4HnSRjF1EJRwnH7g9Fes6HcIxhduCci1hLqVZqNvGG45IOfnOnd8vG4AOfA8svZGFD5VPCUcKhvlC0ey6Ew1V/aZ2dBiJqAvjRLbwig97rX8cf6Ib4pv7175qRMvoY14L0Iwtcmw6n7En1ktoxlHCUcJL6UruHZ084TO0m2o268pJEvJJOkNc+KZFmXMat7988CkNXrq+Tj9pJz8ark3ebTNrhtTd4d68iLWfrDXXyOQFKOByUpuMQsXMnMZIcmg7Tq9GYUGz8njnhcDtG/6P3Je72cPx2Eo23SBhfutHr0ZzmV4NG3APv/JAX7dDloBKOF9pahFDiCE2HGSvh1OBv+CFzwhladZXXCEqdwVUbibHZRRoT9+6C4fWbXaLrwtKMv5ylFX45sGfDF+vk+gIOZcLB9q0ODvsgqv1Ozp/ciYwS1vrYQQ9zCvfdO44yfjgt2i31la2Iv2dKOBzNAI8r9O28M9EOIzWo2poSJ3+70VKXRaaj7n/7Cju689nO3xnBEXgoE44DDlZQMOGwpDchktGsiUir+w9EdkO0GUK3+X52dxf7/F8TStJWIjIlHI5WUJt5HLDgKe8D7/uE45fkoMN++E0on3RiFIGTf1zS/N/+LLEzcLQlO/+47Np7zNt1UODAhjJQk+po8Ps8+KmNzgS7Fy5hK08/Vyuu6yEtPZIBHhdp9lVacDjMueDDkdhgwjHYj95qJjjmlVbPOhHYrs88BxPGtWHsx8ZEkHLh5Na9/N3QecZpUPJsXKSIKdxPmRIOx9EvTSOQdipEv+faz0HXuWdHDTFy0+0w/pMdokZJIwyOxuQzfmNhQuolqgQzsss2wakjie9/zGDr+Hc7Uq2U5HHuVGYphjSxVQeG4MCyj3KyiuJw2hMM0UzsfDD4MytIPvPWXXZIHKHIjnBMI/iWIL7GlHYq7CHzLv0kdK+cngVDCIc6ZlKPHL56o3fHigZFkoyQeiXJssNxeSo5+e7aXpfYzFxGcglhdZ11hhdLu374TNhKMaR2bTbhVIw2J9VQ43Wi98gGuH514uYJxSvyPTPC4SyH0rQJBJXreGc3AHUsDOMsgey0+OwahHYcTkdvhgw7T+4zEjj+M8DKn55kJbGxogQcrZTi2tokhUkIC4380lP6bUM4xkYzummrd+lEuHDv0Sdtf7R51pyVi9c7M8JhDcwUe0lUUNOo+0+b/pJfvOBJ77YNRjqbRQbsn29LEj1dJIZK7iNSDjaphUj4EQmna8lb2IO4TsMU4h0dXt0x0x4i0SqxrTjuBnZ124JwDE4cVwu73NJn36Qlldcu8TMjnHHzVb2R73w/tZ7UedIiSQZn3QAygiUDwDXju8rm21Vybc/bciR1stP5nrH+cy/4iMjQbrdBiEYZHxg+bKgORO7c+JSOyivFkNpWOgm5+tTozVuartlQ/egeaTr3fDdxA4PiFe2eGeH4BrqrIZPA49hN0B7Qs+GqeiOmsSUNnLPKa9uQlGfwojWpyxafLOlgScIlHk75Drx/pbe+lNbWCDmTBKWju02uksFMy7GiEU7IzidhJb2numlIhbVJ/MwIx+fwZxt3vVgYFTbtq3zRQFv9qXqyIcGGdEZu2Zq4Y2UPGkqSdm+UTLMmHAlx2Mu/kN0le1BI6kVOloUiHMZGSFq/CfmNNLOQtO2YJjPC8XWkICBNg+N3iKf+/BRU9r0M+B8ayiefxFY7cQbGM1n4nxzKC46A8tLFUF54gnhXwEc4Po9jycCUdBrScCRLIyJ+jpE/qSzk2uDDxU5PW+q+fmKnwedWLqnGvnc3jH473UwQL2+j75Gd7P47kifTRjPIOX2xCCdncJKy46jVNDBcMnDreHTz/43TUl8hJBbXhQQcOfMJjL9k+OXUyZUnhpGWxCUPIjlMy02DcfEiXKWkTROcZNmH+RGJo6+Nz80D47uu8lsXQXnRQtEOoi2H8LXDivqshBPQcpzBSQODIz500KXJ5ti9KD3acYYvvc575o3ix+84KCXGansAhdY9b8KRbPcTPhFZxb7HjYQ3eP5n2TY2lOXTmCm/ItyLRThmlsEPZ08cdJvvMu75HcIl1RQuqUx6dJPvXLoEyice3/QlVW1WZPaA0EGXJl4yQNCAyz3gmpSnRAYtwVBWaN3zJhzJchHrldYHJM6RKAsvWoJOvxX3b2aE49vJsdVqL3xoNE74ng2mjT5NcYX5zw4ON/tItiEqPD+TdL5F+m98fZ0vrbO56ho66FyyKCykU1PaLO/RbqL5/hBdoXXPm3CkBnWbVKmu9p2jJdvx+x/eHh36tMOK+JwZ4TRtUDKdrCK18+tr6knHkM3AuRd7P+GZ+D0dR6v6duDagXCw2D7Sd1Qt86D4jmBRCEdSzjipukCVTgj9e+4xBwXnukQVKiwzwuFszXLsHJKZwEUaEictMiz6WtDX+eKDqlF58fQc3DCNBLt4Hlm9234/mIcPy3g5qO55aziScpKPUbzs8XeJzD7j0Y0G/qJfmREOp0PEO18dmILdFkpry5Ru9dKODcly3Tm7HLZR1CUjHibpeJiWBl1cTvydU9Z4mizfybvYziO07pz+ZedDk4kUE9JWJeXkmgskMufvMv90cRZ8xiIzwuH4gvgGJkeG3anwmToWPrfr4U0sm31JOh6m4xIOxpV4HWP8LC/XzB9a93YmHNsZMglP6WQ4W2w4/wMAAP//riKIRQAACN5JREFU7Z1/bBRFFMff9VqgtAUVf6ESjRIJBqMRjRGNphGDRhqUxIgxxoASjIQoCAkUY4iC8kMRRSMIBIiYaCQIqImoScUfCFGMIhExajAQ0Qoq9Cdt7859284xtzczO7N317nrvPujuzs/3sz7zOx3Z2dnt7GU94NC/DyzJ66rU1ruf98EGPDEVGmarr0/QMu0edJ4UUTl9Aeh3+R7/Ki251dDx1vviZJJw6pWPwflo6+UxrfOWwqdH38mjceIwd+8r4wPRp64dnwwSHlsYr9z6w5oXbhSaS8sMn7VSEh8fyAsWWj8oA/fgNjZZ2aki+q7ad9g7ZpqaoGTtfdm1EF10G9SHVTOngatcxdD5ydfqJJmxA1qeBtiNVUZYfzBqQ3vQPsrG/kg5f7gPdsA4nFlmlKIjBVMcDzvdRpJBdK0UyHwgU/OgIq7xvnsowhO9ZsvQXzEZX7+4J/UqQ44eePEYHDGMeugGYEhB6YnXVhn5otLHj4KTXfLRZ1PK9uvWjYfkoeOQNur+ieIyJZIKE19ZzZM+0augtPV8BW0zFkkcksYVjb0XKjZukYoEqZtgoJfvW6ZsJxSCyyo4Og0EusIInCpY//CydsfEEVJw3jB0Ck/aGjQl1sg1r9fMNg/1hkt8OULjQgCTU+6ittuhsr66ekrKAphcv9BKLv4oqwRBGiMNAVVyghCJqnG4zkJFz/y5I2b+m5LcHQuNrxfuI+iU/XaIii78HyAWAwgkYCuz7+GltkLg0mVxyj45bU3KNOUSmRBBUenkfwrwfZ13Q0ioNZ052RI/vW3IEYcxI+YdMrnrSivJF5nOXH9BD65cJ8vX5hAEGh60glM+EEy8Y4y0mNlpJnkKFw1766BsmFDmdn01tR3W4KDFW5+aE5ebi3TzmvuqC6CmiaKJllBBQe91Gkk2YmC+RMHf4Xm+x/D3dCf6EqgMyphhkVzDCxOx07F2Jtg4OK5LIv2VufWU8eYjKMJw2A5PNNchEsmxKUkOKa3QkGWUY5lI8MotoohT8EFR7ezyzokQtI52aVzJ96VuXXektAJP9nJiuXrjpRkV3G0ofrlciLzdqU+aI7OeFtsn58v0m1LlpdtVUJcSoKD/uSrrRibsK3qvAjLW4zxBRccnENoGj8l9LYo7IkVdvbWWQuz7JSddw5UPj1L+WQJ69D17X7hEy+8ZahaUp8998FaCwWrflnok6n0rQfLZ7A1nQCVmZYKjpdBZ6QZtItsaz5Yfzo4onCp6lVqgoMXn+aJ07L64WlI+duLegHLXw3yb6nwguPVWfeEUnVM5jpOJCd+P+IfxnGSdMgZ0vkflie99cQjeeRPSDYe685/+aXpidd0msBO57aPoPWZlwOh2Yc6dc/O1R2iO4KS5WfhqjpEmUDnn/ixMqLc/qnmIEpNcJCD6aN1xs5kK2Jvkr9Y0/aK4OiOchBSMam67j27P7pZu1Rf+AS9IR9DdZXgRDlJRHNapsIVNvIrRcHB5sO+0fJIfUFGOn1VbJBb7wiOV5DJ/X8xiI6u2CBE0YmJ4Sa/fAzVVYKDdTF54pd1O9XjjKlwhZ08pSo4iAPbrOXR+Xl7coXMq1Y9K3ya14O/5De9JjhIymQ4blN0TMRGOlkdoWvkKjphgqMz+c6qrRIKE+EKE+NSFhyfVc/8YNtTy3Ma7fi868YKFwqyNukL214VHNMTqtp7zSCueM2gEA3Q9elu7YVZ/ihg+9r8dhJvYrbtxbXGr2T4k98rFijnpEyEVCUUJsLF1s3I2qrkBYc5hsLj9Z32TVu0RzzYfwZMnQTld9RKF5sy831l26uCg9BMOj2m959ePT4lvyc1Gg78UAzbFqwIfRrFZ1OdlHy6SPue8HR99yN0NuyCrobdWVdPFJj4yOFQUTsG4qNG6HVY76To2LAZEsf/Ca0Svj8k++FtVfvqTbLodDjWTfVeGibEuSvdX3zIWen35HTrwGwPmDG5m5HHIPHzb5BqbmVRyq02W84K9qXkocOQ+qMROvfu42IAyodfArFhF0Bc44FFRsY+ctDrgoPcTK6QjLM/2rlmVE4Ts8xWxhavTDv3aI9qWF5+QRwLoy0RIAJqAlYEB6sURXTwNYiBC2ZC/Oorch/x4AjCe6+l7YXXIXm0UU0pEKua3wgkpUMiQAQ4AtYEB+tgMonM1dnfxVutirpbu19YlLxsGczjD3W9NTyn1m82unXi7ZDY8DRonwiYEbAqOFjVKCMdkYsoQPjDOQP2HRK8z8dFh0lvsWDYN2xENoNhJDZBInRMBMwIWBccrG6+RMfMdbPUNGdjxotSEwERgaIQHKwYPr0q1MpNkeO6Yfjosnrjcvm7VrqGKB0RIAK9t9JYhzXOsbSvXG+8BkXHdpQ0/qK+mQ/nPkEdpXDKQwT6IIGiGeHwbGVvhvNpCrnvwhLzQvIj20RARqAoBcevLK6P8T4pkeuScZnjonAUGv9TF4VY7yMqkMKIgGMEildwWEP0rAxtW7pKe8k4y6q7xQ9E9ff+0wOu/vS/PaubkdIRASJgRKD4BYdzB+d4Erv2QseOnaFf8OOyCXdRZPqNuwXiY0brvRYgtEKBRIAImBAoKcHJcMwb+aSO/+d/jCu57yf//aDEgV+yRkHsnaP0OyymH+3KKJQOiAARyIVA6QpOLl5TXiJABKwQIMGxgp0KJQJuEiDBcbPdyWsiYIUACY4V7FQoEXCTAAmOm+1OXhMBKwRIcKxgp0KJgJsESHDcbHfymghYIUCCYwU7FUoE3CRAguNmu5PXRMAKARIcK9ipUCLgJgESHDfbnbwmAlYIkOBYwU6FEgE3CZDguNnu5DURsEKABMcKdiqUCLhJgATHzXYnr4mAFQIkOFawU6FEwE0CJDhutjt5TQSsECDBsYKdCiUCbhIgwXGz3clrImCFAAmOFexUKBFwkwAJjpvtTl4TASsESHCsYKdCiYCbBEhw3Gx38poIWCFAgmMFOxVKBNwkQILjZruT10TACgESHCvYqVAi4CYBEhw32528JgJWCJDgWMFOhRIBNwn8D+DA7WgOwXkhAAAAAElFTkSuQmCC;" vertex="1" parent="1">
          <mxGeometry x="700" y="370" width="124" height="46.28" as="geometry" />
        </mxCell>
        <mxCell id="zOqDWjr1UwVliQbFNif_-5" value="" style="outlineConnect=0;dashed=0;verticalLabelPosition=bottom;verticalAlign=top;align=center;html=1;shape=mxgraph.aws3.internet_3;fillColor=#D2D3D3;gradientColor=none;" vertex="1" parent="1">
          <mxGeometry x="60" y="119.5" width="79.5" height="54" as="geometry" />
        </mxCell>
        <mxCell id="zOqDWjr1UwVliQbFNif_-7" value="Web Application Firewall" style="outlineConnect=0;dashed=0;verticalLabelPosition=bottom;verticalAlign=top;align=center;html=1;shape=mxgraph.aws3.waf;fillColor=#759C3E;gradientColor=none;" vertex="1" parent="1">
          <mxGeometry x="220" y="110" width="76.5" height="93" as="geometry" />
        </mxCell>
        <mxCell id="Qc3eZM8ouj6H9_mYSM2a-2" value="" style="edgeStyle=orthogonalEdgeStyle;html=1;endArrow=block;elbow=vertical;startArrow=none;endFill=1;strokeColor=#545B64;rounded=0;" edge="1" parent="1" target="zOqDWjr1UwVliQbFNif_-7">
          <mxGeometry width="100" relative="1" as="geometry">
            <mxPoint x="140" y="150" as="sourcePoint" />
            <mxPoint x="210" y="150" as="targetPoint" />
            <Array as="points">
              <mxPoint x="200" y="150" />
              <mxPoint x="200" y="150" />
            </Array>
          </mxGeometry>
        </mxCell>
        <mxCell id="Qc3eZM8ouj6H9_mYSM2a-7" value="" style="edgeStyle=orthogonalEdgeStyle;html=1;endArrow=block;elbow=vertical;startArrow=none;endFill=1;strokeColor=#545B64;rounded=0;" edge="1" parent="1">
          <mxGeometry width="100" relative="1" as="geometry">
            <mxPoint x="290" y="150" as="sourcePoint" />
            <mxPoint x="380" y="150" as="targetPoint" />
          </mxGeometry>
        </mxCell>
        <mxCell id="Qc3eZM8ouj6H9_mYSM2a-8" value="" style="edgeStyle=orthogonalEdgeStyle;html=1;endArrow=block;elbow=vertical;startArrow=none;endFill=1;strokeColor=#545B64;rounded=0;" edge="1" parent="1">
          <mxGeometry width="100" relative="1" as="geometry">
            <mxPoint x="450" y="150" as="sourcePoint" />
            <mxPoint x="550" y="150" as="targetPoint" />
          </mxGeometry>
        </mxCell>
        <mxCell id="Qc3eZM8ouj6H9_mYSM2a-9" value="" style="edgeStyle=orthogonalEdgeStyle;html=1;endArrow=block;elbow=vertical;startArrow=none;endFill=1;strokeColor=#545B64;rounded=0;exitX=0.5;exitY=1;exitDx=0;exitDy=0;exitPerimeter=0;" edge="1" parent="1" source="zOqDWjr1UwVliQbFNif_-2">
          <mxGeometry width="100" relative="1" as="geometry">
            <mxPoint x="570" y="240" as="sourcePoint" />
            <mxPoint x="588" y="270" as="targetPoint" />
          </mxGeometry>
        </mxCell>
        <mxCell id="Qc3eZM8ouj6H9_mYSM2a-10" value="" style="edgeStyle=orthogonalEdgeStyle;html=1;endArrow=block;elbow=vertical;startArrow=none;endFill=1;strokeColor=#545B64;rounded=0;entryX=0.5;entryY=0;entryDx=0;entryDy=0;" edge="1" parent="1" source="zOqDWjr1UwVliQbFNif_-3" target="zOqDWjr1UwVliQbFNif_-4">
          <mxGeometry width="100" relative="1" as="geometry">
            <mxPoint x="619" y="316.00000000000006" as="sourcePoint" />
            <mxPoint x="680" y="316" as="targetPoint" />
          </mxGeometry>
        </mxCell>
      </root>
    </mxGraphModel>
  </diagram>
  <diagram id="MzWicVQNu6w7Y8jP2YZz" name="Email Scheduled">
    <mxGraphModel dx="949" dy="466" grid="1" gridSize="10" guides="1" tooltips="1" connect="1" arrows="1" fold="1" page="1" pageScale="1" pageWidth="850" pageHeight="1100" math="0" shadow="0">
      <root>
        <mxCell id="0" />
        <mxCell id="1" parent="0" />
        <mxCell id="_E_wnS7csQRE6WmwoXX1-1" value="Schedule Emails Cron Job" style="outlineConnect=0;dashed=0;verticalLabelPosition=bottom;verticalAlign=top;align=center;html=1;shape=mxgraph.aws3.cloudwatch;fillColor=#759C3E;gradientColor=none;" vertex="1" parent="1">
          <mxGeometry x="50" y="109.5" width="82.5" height="93" as="geometry" />
        </mxCell>
        <mxCell id="Y7_A2BcCHF37ZM_8kDMM-1" value="Email Function" style="outlineConnect=0;dashed=0;verticalLabelPosition=bottom;verticalAlign=top;align=center;html=1;shape=mxgraph.aws3.lambda_function;fillColor=#F58534;gradientColor=none;" vertex="1" parent="1">
          <mxGeometry x="250" y="120.00000000000003" width="69" height="72" as="geometry" />
        </mxCell>
        <mxCell id="5jNfDufuB3J732uhC-80-1" value="Email Q" style="outlineConnect=0;dashed=0;verticalLabelPosition=bottom;verticalAlign=top;align=center;html=1;shape=mxgraph.aws3.sqs;fillColor=#D9A741;gradientColor=none;" vertex="1" parent="1">
          <mxGeometry x="430" y="109.5" width="76.5" height="93" as="geometry" />
        </mxCell>
        <mxCell id="5jNfDufuB3J732uhC-80-2" value="Twilio Function" style="outlineConnect=0;dashed=0;verticalLabelPosition=bottom;verticalAlign=top;align=center;html=1;shape=mxgraph.aws3.lambda_function;fillColor=#F58534;gradientColor=none;" vertex="1" parent="1">
          <mxGeometry x="630" y="120.00000000000003" width="69" height="72" as="geometry" />
        </mxCell>
        <mxCell id="5jNfDufuB3J732uhC-80-3" value="" style="shape=image;verticalLabelPosition=bottom;labelBackgroundColor=default;verticalAlign=top;aspect=fixed;imageAspect=0;image=data:image/png,iVBORw0KGgoAAAANSUhEUgAAARwAAABqCAYAAABu+O6IAAAMaGlDQ1BJQ0MgUHJvZmlsZQAASImVVwdUU8kanluSkJDQAqFICb0JIr1ICaFFEJAONkISSCgxJAQVO7qo4NpFFCu6KqLi6grIWhCxuwj2vlhQUdZFXRRF5U1IQNd95bz/nLnz5Zt//nZncmcA0OzjSiS5qBYAeeICaVx4MDMlNY1JegpIAANUYALsuDyZhBUbGwWgDPV/l3c3AKLorzopbP1z/L+KDl8g4wGATIQ4gy/j5UHcBAC+kSeRFgBAVPCW0wokCjwPYl0pDBDiNQqcpcS7FThDiY8O6iTEsSFuA0CNyuVKswDQuAd5ZiEvC9rR+ASxi5gvEgOgORLiAJ6Qy4dYEfvIvLypClwBsR3Ul0AM4wHeGd/YzPqb/Yxh+1xu1jBW5jUoaiEimSSXO+P/LM3/lrxc+ZAPG9ioQmlEnCJ/WMNbOVMjFZgKcbc4IzpGUWuI+0R8Zd0BQClCeUSiUh815snYsH6AAbELnxsSCbExxGHi3OgoFZ+RKQrjQAxXCzpdVMBJgNgA4sUCWWi8SmerdGqcyhdalylls1T8Oa500K/C1wN5TiJLZf+NUMBR2cc0ioQJyRBTILYqFCVFQ6wBsbMsJz5SpTOmSMiOHtKRyuMU8VtBHCcQhwcr7WOFmdKwOJV+aZ5sKF9sq1DEiVbhgwXChAhlfbAWHncwfpgL1iYQsxKH7AhkKVFDufAFIaHK3LHnAnFivMpOn6QgOE45F6dIcmNV+riFIDdcwVtA7C4rjFfNxZMK4OJU2sczJQWxCco48aJs7thYZTz4ChAF2CAEMIEctgwwFWQDUWt3fTf8pRwJA1wgBVlAAJxUzNCM5MERMXzGgyLwB0QCIBueFzw4KgCFkP88zCqfTiBzcLRwcEYOeApxHogEufC3fHCWeNhbEngCGdE/vHNh48F4c2FTjP97foj9yrAgE6Vi5EMemZpDmsRQYggxghhGtMeN8ADcD4+CzyDYXHFv3Gcoj6/6hKeEdsIjwnVCB+H2FFGx9Lsox4EOaD9MVYuMb2uB20CbHngw7g+tQ8s4AzcCTrg79MPCA6FnD8iyVXErqsL8zvbfMvjmbaj0yC5klKxPDiLbfT9Tw0HDY9iKotbf1kcZa8ZwvdnDI9/7Z39TfT7sI7/XxBZjh7Cz2EnsPHYUqwdM7ATWgF3Cjinw8Op6Mri6hrzFDcaTA+2I/uFv6M0qKilzqXHpcvmkHCsQTC9QbDz2VMkMqShLWMBkwa+DgMkR85xHMl1dXF0BUHxrlH9fbxmD3xCEceErl98EgE8pJLO+clxLAI48BYD+7itn+QZumxUAHGvjyaWFSg5XPAjwX0IT7jRDYAosgR3MxxV4Aj8QBELBWBADEkAqmAyjF8J1LgXTwCwwH5SAMrACrAUbwBawHewG+8BBUA+OgpPgDLgI2sB1cBeunk7wEvSAd6AfQRASQkPoiCFihlgjjogr4o0EIKFIFBKHpCLpSBYiRuTILGQBUoasQjYg25Bq5GfkCHISOY+0I7eRh0gX8gb5iGIoFdVFTVAbdBTqjbLQSDQBnYRmofloEboQXYZWoFXoXrQOPYleRK+jHehLtBcDmDrGwMwxJ8wbY2MxWBqWiUmxOVgpVo5VYfuxRvier2IdWDf2ASfidJyJO8EVHIEn4jw8H5+DL8U34LvxOrwFv4o/xHvwLwQawZjgSPAlcAgphCzCNEIJoZywk3CYcBrupU7COyKRyCDaEr3gXkwlZhNnEpcSNxFriU3EduJjYi+JRDIkOZL8STEkLqmAVEJaT9pLOkG6Quok9ampq5mpuaqFqaWpidWK1crV9qgdV7ui9kytn6xFtib7kmPIfPIM8nLyDnIj+TK5k9xP0abYUvwpCZRsynxKBWU/5TTlHuWturq6hbqP+nh1kfo89Qr1A+rn1B+qf6DqUB2obOpEqpy6jLqL2kS9TX1Lo9FsaEG0NFoBbRmtmnaK9oDWp0HXcNbgaPA15mpUatRpXNF4pUnWtNZkaU7WLNIs1zykeVmzW4usZaPF1uJqzdGq1DqidVOrV5uuPVo7RjtPe6n2Hu3z2s91SDo2OqE6fJ2FOtt1Tuk8pmN0SzqbzqMvoO+gn6Z36hJ1bXU5utm6Zbr7dFt1e/R09Nz1kvSm61XqHdPrYGAMGwaHkctYzjjIuMH4qG+iz9IX6C/R369/Rf+9wQiDIAOBQalBrcF1g4+GTMNQwxzDlYb1hveNcCMHo/FG04w2G5026h6hO8JvBG9E6YiDI+4Yo8YOxnHGM423G18y7jUxNQk3kZisNzll0m3KMA0yzTZdY3rctMuMbhZgJjJbY3bC7AVTj8li5jIrmC3MHnNj8whzufk281bzfgtbi0SLYotai/uWFEtvy0zLNZbNlj1WZlbjrGZZ1VjdsSZbe1sLrddZn7V+b2Nrk2yzyKbe5rmtgS3Htsi2xvaeHc0u0C7frsrumj3R3ts+x36TfZsD6uDhIHSodLjsiDp6OoocNzm2jySM9BkpHlk18qYT1YnlVOhU4/TQmeEc5VzsXO/8apTVqLRRK0edHfXFxcMl12WHy93ROqPHji4e3Tj6jauDK8+10vWaG80tzG2uW4Pba3dHd4H7ZvdbHnSPcR6LPJo9Pnt6eUo993t2eVl5pXtt9Lrpresd673U+5wPwSfYZ67PUZ8Pvp6+Bb4Hff/0c/LL8dvj93yM7RjBmB1jHvtb+HP9t/l3BDAD0gO2BnQEmgdyA6sCHwVZBvGDdgY9Y9mzsll7Wa+CXYKlwYeD37N92bPZTSFYSHhIaUhrqE5oYuiG0AdhFmFZYTVhPeEe4TPDmyIIEZERKyNuckw4PE41p2es19jZY1siqZHxkRsiH0U5REmjGseh48aOWz3uXrR1tDi6PgbEcGJWx9yPtY3Nj/11PHF87PjK8U/jRsfNijsbT4+fEr8n/l1CcMLyhLuJdonyxOYkzaSJSdVJ75NDklcld6SMSpmdcjHVKFWU2pBGSktK25nWOyF0wtoJnRM9JpZMvDHJdtL0SecnG03OnXxsiuYU7pRD6YT05PQ96Z+4Mdwqbm8GJ2NjRg+PzVvHe8kP4q/hdwn8BasEzzL9M1dlPs/yz1qd1SUMFJYLu0Vs0QbR6+yI7C3Z73NicnblDOQm59bmqeWl5x0R64hzxC1TTadOn9oucZSUSDryffPX5vdII6U7ZYhskqyhQBce6i/J7eQ/yB8WBhRWFvZNS5p2aLr2dPH0SzMcZiyZ8aworOinmfhM3szmWeaz5s96OJs1e9scZE7GnOa5lnMXzu2cFz5v93zK/Jz5vxW7FK8q/mtB8oLGhSYL5y18/EP4DzUlGiXSkpuL/BZtWYwvFi1uXeK2ZP2SL6X80gtlLmXlZZ+W8pZe+HH0jxU/DizLXNa63HP55hXEFeIVN1YGrty9SntV0arHq8etrlvDXFO65q+1U9aeL3cv37KOsk6+rqMiqqJhvdX6Fes/bRBuuF4ZXFm70Xjjko3vN/E3XdkctHn/FpMtZVs+bhVtvbUtfFtdlU1V+Xbi9sLtT3ck7Tj7k/dP1TuNdpbt/LxLvKtjd9zulmqv6uo9xnuW16A18pquvRP3tu0L2dew32n/tlpGbdkBcEB+4MXP6T/fOBh5sPmQ96H9v1j/svEw/XBpHVI3o66nXljf0ZDa0H5k7JHmRr/Gw786/7rrqPnRymN6x5YfpxxfeHzgRNGJ3iZJU/fJrJOPm6c03z2Vcupay/iW1tORp8+dCTtz6izr7Ilz/ueOnvc9f+SC94X6i54X6y55XDr8m8dvh1s9W+sue11uaPNpa2wf0378SuCVk1dDrp65xrl28Xr09fYbiTdu3Zx4s+MW/9bz27m3X98pvNN/d949wr3S+1r3yx8YP6j63f732g7PjmMPQx5eehT/6O5j3uOXT2RPPnUufEp7Wv7M7Fn1c9fnR7vCutpeTHjR+VLysr+75A/tPza+snv1y59Bf17qSenpfC19PfBm6VvDt7v+cv+ruTe298G7vHf970v7DPt2f/D+cPZj8sdn/dM+kT5VfLb/3Pgl8su9gbyBAQlXyh08CmCwoZmZALzZBQAtFZ4d4L2NMkF5FxwURHl/HUTgP2HlfXFQPAHYFQRA4jwAouAZZTNs1hBTYa84wicEAdTNbbipRJbp5qq0RYU3IULfwMBbEwBIjQB8lg4M9G8aGPi8AwZ7G4CmfOUdVCFEeGfY6qxAbZ2vwPeivJ9+k+P3PVBE4A6+7/8F02ePc43K8woAAACKZVhJZk1NACoAAAAIAAQBGgAFAAAAAQAAAD4BGwAFAAAAAQAAAEYBKAADAAAAAQACAACHaQAEAAAAAQAAAE4AAAAAAAAAkAAAAAEAAACQAAAAAQADkoYABwAAABIAAAB4oAIABAAAAAEAAAEcoAMABAAAAAEAAABqAAAAAEFTQ0lJAAAAU2NyZWVuc2hvdK87P6wAAAAJcEhZcwAAFiUAABYlAUlSJPAAAAHWaVRYdFhNTDpjb20uYWRvYmUueG1wAAAAAAA8eDp4bXBtZXRhIHhtbG5zOng9ImFkb2JlOm5zOm1ldGEvIiB4OnhtcHRrPSJYTVAgQ29yZSA2LjAuMCI+CiAgIDxyZGY6UkRGIHhtbG5zOnJkZj0iaHR0cDovL3d3dy53My5vcmcvMTk5OS8wMi8yMi1yZGYtc3ludGF4LW5zIyI+CiAgICAgIDxyZGY6RGVzY3JpcHRpb24gcmRmOmFib3V0PSIiCiAgICAgICAgICAgIHhtbG5zOmV4aWY9Imh0dHA6Ly9ucy5hZG9iZS5jb20vZXhpZi8xLjAvIj4KICAgICAgICAgPGV4aWY6UGl4ZWxZRGltZW5zaW9uPjEwNjwvZXhpZjpQaXhlbFlEaW1lbnNpb24+CiAgICAgICAgIDxleGlmOlBpeGVsWERpbWVuc2lvbj4yODQ8L2V4aWY6UGl4ZWxYRGltZW5zaW9uPgogICAgICAgICA8ZXhpZjpVc2VyQ29tbWVudD5TY3JlZW5zaG90PC9leGlmOlVzZXJDb21tZW50PgogICAgICA8L3JkZjpEZXNjcmlwdGlvbj4KICAgPC9yZGY6UkRGPgo8L3g6eG1wbWV0YT4K76YTEgAAABxpRE9UAAAAAgAAAAAAAAA1AAAAKAAAADUAAAA1AAAMFTpe6ZIAAAvhSURBVHgB7F19jF1FFT9v3+623WW7SBEkQsBQQ6qgpJUolRAbUUy0FA0qxhgpFDHiB1AqVEAbLbYIFLQaJC1UI34FYoHWxIqk2iBIUKKiggYMBExFKdDu98fb55y7Pc/Z++beOWfeu/e9uz33j733zps5M/Obmd+cOXPmbqlqLtBLEVAEFIEcECgp4eSAsmahCCgCEQJKONoRFAFFIDcElHByg1ozUgQUASUc7QOKgCKQGwJKOLlBrRkpAoqAEo72AUVAEcgNASWc3KDWjBQBRUAJR/uAIqAI5IaAEk5uUGtGioAioISjfUARUARyQ0AJJzeoNSNFQBFQwtE+oAgoArkhoISTG9SakSKgCBSXcMwh9+rLr8LUsy/A5BNPQXXfq1B58mmY/ONfZ7Rq56lvhvKihVBeeDx0HHsMdJxwLJSOOBygVJoRT18UAUUgewQKRTjVsXGoPPI4jO/aAxMP7GkIna73nAndZ58J5dMXQ2lOd0OyNLEioAjwEGh/wjGaTOXxv8DobXfVaS+8KvpjIfnMWXkelN/4BtV8/HBpDEUgGIH2JZyDRDO87haY2vuf4ApKEnYccxT0rLscyotPVuKRAKdxFQEmAm1JOJV//BOGV6/PjWjiWCHx9N52fWTzif+m74qAIhCOQFsRDtpoRtbd2rB9JhyOmSnnfGwFzL3sQoByeeYP+qYIKAJBCLQN4Uw9vxeGPnNNy7SaJPRQ2zls281QOvI1SVE0XBFQBJgItAXhTNz3Sxj+2reYRW5NtN6broXOd72jNZlrrorALEGgtYRjDMMT9z/QFLLpPn951CRdy5bOaJqJ3Q9D9aVXYOJXD80ID3npue7z0LXivSFJNY0ioAgYBFpKOMNrvxFsr0GC6V5+lnHkO47tR4M2oqlnn4exbXcHE5CSjo4bRSAcgZYRTsgyquPo18K8r14Bnae+qXFDbqVi/Hr+BiNf3gRTL/5XhKCSjggujawI1BBoCeGEkE3v7RugMwv/GLOsm/z172BozfU1UDgPvTdeA53LTudE1TiKgCJwEIHcCQd3owY+eDG7AXDpNO/yVY1rNJ4coy35r2wSLbXm/+IH+e5eGa0MnSDxTNhsuaZe2AvVF19iV6fmlGmwqBgNlXuVSSsWpisdfeSswpuLV1bxciUcHNSD532avfUdaTVLTsmq7k65k7sfYWs7uGXed++WTMkQMYufH5u/+6dQ6ut1lr9ogfvf9gFRkalPTP7hCRi6ZC07bWg6zKD/9zvZ+WjEdARyJRyJkbhv+xboOK41M7lEC4ucA1fzNbb05pj+lUhm7K7tzvNjSjingBIOpye1X5zcCKfy92dg8ONfYCGQ+1LFUSoJ6TSjvNV9r8DkQ4/B+I4HnSRjF1EJRwnH7g9Fes6HcIxhduCci1hLqVZqNvGG45IOfnOnd8vG4AOfA8svZGFD5VPCUcKhvlC0ey6Ew1V/aZ2dBiJqAvjRLbwig97rX8cf6Ib4pv7175qRMvoY14L0Iwtcmw6n7En1ktoxlHCUcJL6UruHZ084TO0m2o268pJEvJJOkNc+KZFmXMat7988CkNXrq+Tj9pJz8ark3ebTNrhtTd4d68iLWfrDXXyOQFKOByUpuMQsXMnMZIcmg7Tq9GYUGz8njnhcDtG/6P3Je72cPx2Eo23SBhfutHr0ZzmV4NG3APv/JAX7dDloBKOF9pahFDiCE2HGSvh1OBv+CFzwhladZXXCEqdwVUbibHZRRoT9+6C4fWbXaLrwtKMv5ylFX45sGfDF+vk+gIOZcLB9q0ODvsgqv1Ozp/ciYwS1vrYQQ9zCvfdO44yfjgt2i31la2Iv2dKOBzNAI8r9O28M9EOIzWo2poSJ3+70VKXRaaj7n/7Cju689nO3xnBEXgoE44DDlZQMOGwpDchktGsiUir+w9EdkO0GUK3+X52dxf7/F8TStJWIjIlHI5WUJt5HLDgKe8D7/uE45fkoMN++E0on3RiFIGTf1zS/N/+LLEzcLQlO/+47Np7zNt1UODAhjJQk+po8Ps8+KmNzgS7Fy5hK08/Vyuu6yEtPZIBHhdp9lVacDjMueDDkdhgwjHYj95qJjjmlVbPOhHYrs88BxPGtWHsx8ZEkHLh5Na9/N3QecZpUPJsXKSIKdxPmRIOx9EvTSOQdipEv+faz0HXuWdHDTFy0+0w/pMdokZJIwyOxuQzfmNhQuolqgQzsss2wakjie9/zGDr+Hc7Uq2U5HHuVGYphjSxVQeG4MCyj3KyiuJw2hMM0UzsfDD4MytIPvPWXXZIHKHIjnBMI/iWIL7GlHYq7CHzLv0kdK+cngVDCIc6ZlKPHL56o3fHigZFkoyQeiXJssNxeSo5+e7aXpfYzFxGcglhdZ11hhdLu374TNhKMaR2bTbhVIw2J9VQ43Wi98gGuH514uYJxSvyPTPC4SyH0rQJBJXreGc3AHUsDOMsgey0+OwahHYcTkdvhgw7T+4zEjj+M8DKn55kJbGxogQcrZTi2tokhUkIC4380lP6bUM4xkYzummrd+lEuHDv0Sdtf7R51pyVi9c7M8JhDcwUe0lUUNOo+0+b/pJfvOBJ77YNRjqbRQbsn29LEj1dJIZK7iNSDjaphUj4EQmna8lb2IO4TsMU4h0dXt0x0x4i0SqxrTjuBnZ124JwDE4cVwu73NJn36Qlldcu8TMjnHHzVb2R73w/tZ7UedIiSQZn3QAygiUDwDXju8rm21Vybc/bciR1stP5nrH+cy/4iMjQbrdBiEYZHxg+bKgORO7c+JSOyivFkNpWOgm5+tTozVuartlQ/egeaTr3fDdxA4PiFe2eGeH4BrqrIZPA49hN0B7Qs+GqeiOmsSUNnLPKa9uQlGfwojWpyxafLOlgScIlHk75Drx/pbe+lNbWCDmTBKWju02uksFMy7GiEU7IzidhJb2numlIhbVJ/MwIx+fwZxt3vVgYFTbtq3zRQFv9qXqyIcGGdEZu2Zq4Y2UPGkqSdm+UTLMmHAlx2Mu/kN0le1BI6kVOloUiHMZGSFq/CfmNNLOQtO2YJjPC8XWkICBNg+N3iKf+/BRU9r0M+B8ayiefxFY7cQbGM1n4nxzKC46A8tLFUF54gnhXwEc4Po9jycCUdBrScCRLIyJ+jpE/qSzk2uDDxU5PW+q+fmKnwedWLqnGvnc3jH473UwQL2+j75Gd7P47kifTRjPIOX2xCCdncJKy46jVNDBcMnDreHTz/43TUl8hJBbXhQQcOfMJjL9k+OXUyZUnhpGWxCUPIjlMy02DcfEiXKWkTROcZNmH+RGJo6+Nz80D47uu8lsXQXnRQtEOoi2H8LXDivqshBPQcpzBSQODIz500KXJ5ti9KD3acYYvvc575o3ix+84KCXGansAhdY9b8KRbPcTPhFZxb7HjYQ3eP5n2TY2lOXTmCm/ItyLRThmlsEPZ08cdJvvMu75HcIl1RQuqUx6dJPvXLoEyice3/QlVW1WZPaA0EGXJl4yQNCAyz3gmpSnRAYtwVBWaN3zJhzJchHrldYHJM6RKAsvWoJOvxX3b2aE49vJsdVqL3xoNE74ng2mjT5NcYX5zw4ON/tItiEqPD+TdL5F+m98fZ0vrbO56ho66FyyKCykU1PaLO/RbqL5/hBdoXXPm3CkBnWbVKmu9p2jJdvx+x/eHh36tMOK+JwZ4TRtUDKdrCK18+tr6knHkM3AuRd7P+GZ+D0dR6v6duDagXCw2D7Sd1Qt86D4jmBRCEdSzjipukCVTgj9e+4xBwXnukQVKiwzwuFszXLsHJKZwEUaEictMiz6WtDX+eKDqlF58fQc3DCNBLt4Hlm9234/mIcPy3g5qO55aziScpKPUbzs8XeJzD7j0Y0G/qJfmREOp0PEO18dmILdFkpry5Ru9dKODcly3Tm7HLZR1CUjHibpeJiWBl1cTvydU9Z4mizfybvYziO07pz+ZedDk4kUE9JWJeXkmgskMufvMv90cRZ8xiIzwuH4gvgGJkeG3anwmToWPrfr4U0sm31JOh6m4xIOxpV4HWP8LC/XzB9a93YmHNsZMglP6WQ4W2w4/wMAAP//riKIRQAACN5JREFU7Z1/bBRFFMff9VqgtAUVf6ESjRIJBqMRjRGNphGDRhqUxIgxxoASjIQoCAkUY4iC8kMRRSMIBIiYaCQIqImoScUfCFGMIhExajAQ0Qoq9Cdt7859284xtzczO7N317nrvPujuzs/3sz7zOx3Z2dnt7GU94NC/DyzJ66rU1ruf98EGPDEVGmarr0/QMu0edJ4UUTl9Aeh3+R7/Ki251dDx1vviZJJw6pWPwflo6+UxrfOWwqdH38mjceIwd+8r4wPRp64dnwwSHlsYr9z6w5oXbhSaS8sMn7VSEh8fyAsWWj8oA/fgNjZZ2aki+q7ad9g7ZpqaoGTtfdm1EF10G9SHVTOngatcxdD5ydfqJJmxA1qeBtiNVUZYfzBqQ3vQPsrG/kg5f7gPdsA4nFlmlKIjBVMcDzvdRpJBdK0UyHwgU/OgIq7xvnsowhO9ZsvQXzEZX7+4J/UqQ44eePEYHDGMeugGYEhB6YnXVhn5otLHj4KTXfLRZ1PK9uvWjYfkoeOQNur+ieIyJZIKE19ZzZM+0augtPV8BW0zFkkcksYVjb0XKjZukYoEqZtgoJfvW6ZsJxSCyyo4Og0EusIInCpY//CydsfEEVJw3jB0Ck/aGjQl1sg1r9fMNg/1hkt8OULjQgCTU+6ittuhsr66ekrKAphcv9BKLv4oqwRBGiMNAVVyghCJqnG4zkJFz/y5I2b+m5LcHQuNrxfuI+iU/XaIii78HyAWAwgkYCuz7+GltkLg0mVxyj45bU3KNOUSmRBBUenkfwrwfZ13Q0ioNZ052RI/vW3IEYcxI+YdMrnrSivJF5nOXH9BD65cJ8vX5hAEGh60glM+EEy8Y4y0mNlpJnkKFw1766BsmFDmdn01tR3W4KDFW5+aE5ebi3TzmvuqC6CmiaKJllBBQe91Gkk2YmC+RMHf4Xm+x/D3dCf6EqgMyphhkVzDCxOx07F2Jtg4OK5LIv2VufWU8eYjKMJw2A5PNNchEsmxKUkOKa3QkGWUY5lI8MotoohT8EFR7ezyzokQtI52aVzJ96VuXXektAJP9nJiuXrjpRkV3G0ofrlciLzdqU+aI7OeFtsn58v0m1LlpdtVUJcSoKD/uSrrRibsK3qvAjLW4zxBRccnENoGj8l9LYo7IkVdvbWWQuz7JSddw5UPj1L+WQJ69D17X7hEy+8ZahaUp8998FaCwWrflnok6n0rQfLZ7A1nQCVmZYKjpdBZ6QZtItsaz5Yfzo4onCp6lVqgoMXn+aJ07L64WlI+duLegHLXw3yb6nwguPVWfeEUnVM5jpOJCd+P+IfxnGSdMgZ0vkflie99cQjeeRPSDYe685/+aXpidd0msBO57aPoPWZlwOh2Yc6dc/O1R2iO4KS5WfhqjpEmUDnn/ixMqLc/qnmIEpNcJCD6aN1xs5kK2Jvkr9Y0/aK4OiOchBSMam67j27P7pZu1Rf+AS9IR9DdZXgRDlJRHNapsIVNvIrRcHB5sO+0fJIfUFGOn1VbJBb7wiOV5DJ/X8xiI6u2CBE0YmJ4Sa/fAzVVYKDdTF54pd1O9XjjKlwhZ08pSo4iAPbrOXR+Xl7coXMq1Y9K3ya14O/5De9JjhIymQ4blN0TMRGOlkdoWvkKjphgqMz+c6qrRIKE+EKE+NSFhyfVc/8YNtTy3Ma7fi868YKFwqyNukL214VHNMTqtp7zSCueM2gEA3Q9elu7YVZ/ihg+9r8dhJvYrbtxbXGr2T4k98rFijnpEyEVCUUJsLF1s3I2qrkBYc5hsLj9Z32TVu0RzzYfwZMnQTld9RKF5sy831l26uCg9BMOj2m959ePT4lvyc1Gg78UAzbFqwIfRrFZ1OdlHy6SPue8HR99yN0NuyCrobdWVdPFJj4yOFQUTsG4qNG6HVY76To2LAZEsf/Ca0Svj8k++FtVfvqTbLodDjWTfVeGibEuSvdX3zIWen35HTrwGwPmDG5m5HHIPHzb5BqbmVRyq02W84K9qXkocOQ+qMROvfu42IAyodfArFhF0Bc44FFRsY+ctDrgoPcTK6QjLM/2rlmVE4Ts8xWxhavTDv3aI9qWF5+QRwLoy0RIAJqAlYEB6sURXTwNYiBC2ZC/Oorch/x4AjCe6+l7YXXIXm0UU0pEKua3wgkpUMiQAQ4AtYEB+tgMonM1dnfxVutirpbu19YlLxsGczjD3W9NTyn1m82unXi7ZDY8DRonwiYEbAqOFjVKCMdkYsoQPjDOQP2HRK8z8dFh0lvsWDYN2xENoNhJDZBInRMBMwIWBccrG6+RMfMdbPUNGdjxotSEwERgaIQHKwYPr0q1MpNkeO6Yfjosnrjcvm7VrqGKB0RIAK9t9JYhzXOsbSvXG+8BkXHdpQ0/qK+mQ/nPkEdpXDKQwT6IIGiGeHwbGVvhvNpCrnvwhLzQvIj20RARqAoBcevLK6P8T4pkeuScZnjonAUGv9TF4VY7yMqkMKIgGMEildwWEP0rAxtW7pKe8k4y6q7xQ9E9ff+0wOu/vS/PaubkdIRASJgRKD4BYdzB+d4Erv2QseOnaFf8OOyCXdRZPqNuwXiY0brvRYgtEKBRIAImBAoKcHJcMwb+aSO/+d/jCu57yf//aDEgV+yRkHsnaP0OyymH+3KKJQOiAARyIVA6QpOLl5TXiJABKwQIMGxgp0KJQJuEiDBcbPdyWsiYIUACY4V7FQoEXCTAAmOm+1OXhMBKwRIcKxgp0KJgJsESHDcbHfymghYIUCCYwU7FUoE3CRAguNmu5PXRMAKARIcK9ipUCLgJgESHDfbnbwmAlYIkOBYwU6FEgE3CZDguNnu5DURsEKABMcKdiqUCLhJgATHzXYnr4mAFQIkOFawU6FEwE0CJDhutjt5TQSsECDBsYKdCiUCbhIgwXGz3clrImCFAAmOFexUKBFwkwAJjpvtTl4TASsESHCsYKdCiYCbBEhw3Gx38poIWCFAgmMFOxVKBNwkQILjZruT10TACgESHCvYqVAi4CYBEhw32528JgJWCJDgWMFOhRIBNwn8D+DA7WgOwXkhAAAAAElFTkSuQmCC;" vertex="1" parent="1">
          <mxGeometry x="620" y="290" width="164" height="61.21" as="geometry" />
        </mxCell>
        <mxCell id="awl70M8CPJW9QFg_VATV-1" value="" style="edgeStyle=orthogonalEdgeStyle;html=1;endArrow=block;elbow=vertical;startArrow=none;endFill=1;strokeColor=#545B64;rounded=0;" edge="1" parent="1">
          <mxGeometry width="100" relative="1" as="geometry">
            <mxPoint x="120" y="150" as="sourcePoint" />
            <mxPoint x="220" y="150" as="targetPoint" />
          </mxGeometry>
        </mxCell>
        <mxCell id="awl70M8CPJW9QFg_VATV-2" value="" style="edgeStyle=orthogonalEdgeStyle;html=1;endArrow=block;elbow=vertical;startArrow=none;endFill=1;strokeColor=#545B64;rounded=0;" edge="1" parent="1">
          <mxGeometry width="100" relative="1" as="geometry">
            <mxPoint x="319" y="150" as="sourcePoint" />
            <mxPoint x="419" y="150" as="targetPoint" />
            <Array as="points">
              <mxPoint x="419" y="150" />
              <mxPoint x="419" y="150" />
            </Array>
          </mxGeometry>
        </mxCell>
        <mxCell id="awl70M8CPJW9QFg_VATV-3" value="" style="edgeStyle=orthogonalEdgeStyle;html=1;endArrow=block;elbow=vertical;startArrow=none;endFill=1;strokeColor=#545B64;rounded=0;" edge="1" parent="1" source="5jNfDufuB3J732uhC-80-1">
          <mxGeometry width="100" relative="1" as="geometry">
            <mxPoint x="506.5" y="156" as="sourcePoint" />
            <mxPoint x="606.5" y="156" as="targetPoint" />
          </mxGeometry>
        </mxCell>
        <mxCell id="awl70M8CPJW9QFg_VATV-4" value="" style="edgeStyle=orthogonalEdgeStyle;html=1;endArrow=block;elbow=vertical;startArrow=none;endFill=1;strokeColor=#545B64;rounded=0;exitX=0.5;exitY=1;exitDx=0;exitDy=0;exitPerimeter=0;" edge="1" parent="1" source="5jNfDufuB3J732uhC-80-2" target="5jNfDufuB3J732uhC-80-3">
          <mxGeometry width="100" relative="1" as="geometry">
            <mxPoint x="680" y="230" as="sourcePoint" />
            <mxPoint x="780" y="230" as="targetPoint" />
          </mxGeometry>
        </mxCell>
      </root>
    </mxGraphModel>
  </diagram>
</mxfile>
